<svg xmlns="http://www.w3.org/2000/svg" xmlns:xlink="http://www.w3.org/1999/xlink" width="196.481" height="97.033" viewBox="0 0 196.481 97.033">
  <defs>
    <clipPath id="clip-path">
      <rect id="Rectangle_4" data-name="Rectangle 4" width="196.481" height="97.033" fill="none"/>
    </clipPath>
  </defs>
  <g id="Logo" transform="translate(-899.796 -717.526)">
    <g id="Vector_Smart_Object" data-name="Vector Smart Object" transform="translate(899.796 717.526)">
      <g id="Group_8" data-name="Group 8">
        <g id="Group_7" data-name="Group 7" clip-path="url(#clip-path)">
          <path id="Path_9" data-name="Path 9" d="M1.811,75.44l8.734-12.283L12.4,62.05l.82.43L18.957,66.6,57,12.538c.856-1.1,1.682-2.545,2.924-2.79a2.611,2.611,0,0,1,1.671.383l6.838,4.462v-.046l4.964-6.821c1.187-1.473,2.34-3.4,4.258-2.017l7.687,6.206a1.785,1.785,0,0,1,.856,1.719l-.03,7.636c3.566-1.538,6.968-1.83,11.61-1.869L111,16.474c3.024-.677,5.112-.958,7.471-.048,1.632.668,2.818,1.923,4.3,4.089l1.763-2.368c.872-5.187,2.492-5.371,8.476-6.615a8.945,8.945,0,0,1,2.966-8.55c2.992-3.068,8.59-4.187,12.085-1.347l6.262,5.085c4.28-1.049,7.788-1.733,10.841-1.62a14.17,14.17,0,0,1,5.822,1.381A15.857,15.857,0,0,1,175.43,9.8c2.876,2.842,5.825,5.425,7.652,7.636a11.055,11.055,0,0,1,2.244,4.473l.952,6.522-5.337.961c7.156,3.736,5.585,11.04,1.423,15.926l3.053,3.57-.124,17.77L58.913,79.57,51.694,73.9,46.5,79.57a3.41,3.41,0,0,1-1.8,1.1,2.81,2.81,0,0,1-2.18-.618L38.5,77.361c-3.864,4.948-7.642,10.614-12.036,15.074-4.083,4.195-6.744,6.056-11.947,3.282L3.994,89.33a12.842,12.842,0,0,1-1.238-.779C.9,87.106.32,85.23.131,82.694c-.195-2.265-.476-4.085,1.68-7.254" transform="translate(0 0)" fill="#050605" fill-rule="evenodd"/>
          <path id="Path_10" data-name="Path 10" d="M161.042,20.479c3.934-.773,7.837-1.54,11.759-2.3-.381-3.115-1.289-5.15-2.866-6.162-3.684-2.338-9.315-1.916-14.393-.471-6.025,1.736-12.525,5.28-13.567,11.2v3.4c.04.234.1.473.152.728a6.222,6.222,0,0,0,2.963,3.976c1.481.82,3.586.86,5.911,1.1,4.209.387,6.837.95,7.508,3.274,1.341,4.648-2.145,7.2-5.34,7.147-4.551-.1-4.455-3.449-4.455-6.63-2.251.336-4.493.673-6.739,1.058v9.462c3.388.817,8.476.482,11.893,0,6.036-.8,12.341-2.975,15.735-6.768a10.463,10.463,0,0,0,2.915-6.391,6.674,6.674,0,0,0-2.256-5.419c-4.3-3.944-10.213-2.84-14.851-4.514-1.811-.672-3.088-1.929-2.443-4.471a5.614,5.614,0,0,1,3.831-4.082c1.279-.432,3.1-.724,3.959.766.536.862.425,2.45.283,5.1m-19.067-3.8v-2.5a4.355,4.355,0,0,0,.243-1.242.412.412,0,0,1-.243.04V4.879c2.761-.347,5.456,1.235,4.63,4.8a11.894,11.894,0,0,1-2.519,4.795,16.716,16.716,0,0,1-2.111,2.212m0,6.061a9.981,9.981,0,0,0,0,3.4Zm0,14.059c-1.438.2-2.873.437-4.363.668v4.958a5.006,5.006,0,0,0,2.828,3.3,12.614,12.614,0,0,0,1.535.534Zm0-31.923v8.105c-2.288.141-3.679-.616-4.363-1.781V7.9a5.671,5.671,0,0,1,4.363-3.02m0,9.307v2.5a25.708,25.708,0,0,1-2.141,1.823,11.593,11.593,0,0,0,2.141-4.319m-4.363,1.678v-.327l.354-.057Zm0,21.606a.5.5,0,0,0-.233.053,14.982,14.982,0,0,0,.233,4.9Zm0-29.571v3.3a3.424,3.424,0,0,1-.08-3.062,1.648,1.648,0,0,0,.08-.243m0,7.638v.327L123.926,31.71A.279.279,0,0,0,124,31.9c1.349,2.6,2.784,5.049,4.015,7.4a17.867,17.867,0,0,0,3.872,5.335,29.532,29.532,0,0,0,4.641,3.462l-12.849,1.727c-2.364.19-4.312-1.448-5.563-4.61l-2.629-5.38c-3.449,4.566-6.826,8.453-8.643,12.4l-6.113.906v-1.3l12.711-15.283-4.585-9.36a10.863,10.863,0,0,0-5.18-4.51l9.765-2.069a5.445,5.445,0,0,1,3.681.578c2.245,1.189,2.765,3.83,4.863,7.254l5.168-6.389a9.007,9.007,0,0,0,2.265-4.844ZM100.735,48.373l1.235-1.334c-.476.042-.866.088-1.235.088Zm0-1.245v1.245l-5.311,5.76c-6.362.049-9.272.107-9.034-5.46-.61.865-1.29,1.627-1.868,2.348V46.984a18.09,18.09,0,0,0,3.54-4.948c2.582-5.088,3.534-11.754,1.484-12.773-1.706-.811-3.484-.276-5.024,1.019V26.531a22.153,22.153,0,0,1,3.005-1.3c3.987-1.431,11.194-2.009,12.618.1.491.717.3,2.3,0,3.789-.758,3.894-1.624,7.738-2.416,11.612-1.206,5.342-1.627,6.687,3.005,6.4m0,4.714-1.242,1.476,1.242-.181ZM84.522,26.531v3.752a14.234,14.234,0,0,0-3.479,4.357,24.44,24.44,0,0,0-2.693,7.877c-.276,3.5.78,5.668,2.983,5.9a4.084,4.084,0,0,0,3.189-1.431v4.037c-5.392,6.191-8.924,6.246-11.189,5.515a5,5,0,0,1-1.383-.856V40.169a28.751,28.751,0,0,1,2.153-3.79,26.371,26.371,0,0,1,10.419-9.848M71.95,23.694V15.537l2.209-3.076Zm0-8.157v8.157l-8.683,45.57-9.417.957,7.069-33.75L39.125,68.023l7.356-29.785L27.509,65.425C22.974,71.717,16.91,81.9,10.7,85.533a5.817,5.817,0,0,1-5.507.582c-1.685-.816-2.344-2.969-2.444-6.9l7.028-9.953c-1.048,5.236-1.336,8.013.343,8.979,1.379.78,4.815-1.446,9.21-6.778S29.135,58.17,34.578,50.2c9.711-14.123,20.17-29.244,23.514-33.764l-5.736,26.8Zm0,24.632c-3.243,7.054-2.475,13.2,0,15.512Z" transform="translate(-0.475 -0.836)" fill="#fff" fill-rule="evenodd"/>
          <path id="Path_11" data-name="Path 11" d="M155.049,68.746v-1.3l1.626-.147-1.38-2.872-.246.437V62.69l1.981-.233,3.851,7.192-2.911.339-.625-1.492Zm8-7.153L166,61.3l5.11,4.856.294-5.475,2.617-.288-.412,7.864-2.829.288-5.2-4.939-.3,5.57-2.674.273ZM187.03,58.7l-.1,1.44-4.2.476-.342,6.677-2.962.337.292-6.662-4.257.458.035-1.385Zm-31.98,3.986v2.172l-1.606,2.773,1.606-.191v1.3l-2.465.269-1.011,1.7L148.89,71l5.16-8.21Zm-12.017,6.056V67.49l.375-.045a5.87,5.87,0,0,0,1.243-.246,1.224,1.224,0,0,0,.849-.954.7.7,0,0,0-.622-.824,5.089,5.089,0,0,0-1.2,0l-.645.1v-1.3l1.268-.141a9.442,9.442,0,0,1,1.955-.047,2.255,2.255,0,0,1,1.1.388,1.709,1.709,0,0,1,.537.574,1.037,1.037,0,0,1,.145.766,2,2,0,0,1-.544,1.1,3.142,3.142,0,0,1-1.532.867,1.787,1.787,0,0,1,1.142.487,1.4,1.4,0,0,1,.213,1.109l-.046.521a1.3,1.3,0,0,0,0,.674.5.5,0,0,0,.389.377V71.1l-2.784.336a3.444,3.444,0,0,1-.1-.39,4.219,4.219,0,0,1-.033-.626l.033-.723c.061-.473-.033-.773-.285-.918a2.913,2.913,0,0,0-1.459-.034m0-4.52v1.3l-2.266.241-.22,2.032,2.486-.308v1.256l-2.636.269L140.1,71.95l-2.49.292.812-7.482Zm-22.15,8.409v-1.2l1.353-.151-.967-2.692-.386.681V67.059l1.925-.2,2.842,6.722-2.475.295-.466-1.434Zm6.216-6.391,2.391-.333-.532,4.562a1.75,1.75,0,0,0,.142,1.053c.252.393.87.488,1.821.393a2.84,2.84,0,0,0,1.971-.873,2.372,2.372,0,0,0,.377-1.148l.532-4.524,2.427-.28L135.7,69.6a3.729,3.729,0,0,1-.809,1.923,6.41,6.41,0,0,1-4.11,1.68c-1.969.248-3.253,0-3.886-.669a2.386,2.386,0,0,1-.331-1.769Zm-6.216.815v2.216l-1.383,2.3,1.383-.141v1.2l-2.2.23-.952,1.541-1.493.148v-1.3l4.022-6.161Zm-4.641,1.823.723-.1.2-1.241-.926.1ZM85.99,74.407l.234-.043a4.731,4.731,0,0,0,1.008-.194,1.11,1.11,0,0,0,.728-.783c.1-.416-.056-.665-.388-.752a2.267,2.267,0,0,0-.894-.061l-.689.061V71.526l1.3-.089a4.845,4.845,0,0,1,1.48,0,1.6,1.6,0,0,1,.765.38,1.263,1.263,0,0,1,.332.529,1.089,1.089,0,0,1,.053.674,1.949,1.949,0,0,1-.541.948,2.478,2.478,0,0,1-1.238.732,1.1,1.1,0,0,1,.829.481,1.79,1.79,0,0,1,.034,1.005l-.112.427a2.438,2.438,0,0,0-.077.636.331.331,0,0,0,.24.328v.137l-2.117.2a1.2,1.2,0,0,1-.037-.336,1.151,1.151,0,0,1,.037-.529l.1-.623c.092-.44.063-.712-.14-.823a1.953,1.953,0,0,0-.915-.139Zm30.252-6.771v1.246l-2.377.295L113,74.928l-2.2.294.808-5.772-3,.341.184-1.2Zm0,5.622-.905,1.4.905-.1ZM98.573,71.142l-4.974.571-.3,1.447,4.592-.524-.224,1.192-4.6.474-.274,1.739L98,75.463,97.749,76.7l-7.111.775,1.232-6.765,6.95-.771Zm2.668,3.075c.042.338.1.528.291.669a2.4,2.4,0,0,0,1.684.191,5.2,5.2,0,0,0,1.131-.238c.611-.181.959-.537,1-.906.049-.194-.082-.387-.335-.479a7.651,7.651,0,0,0-1.292-.141l-1-.056a6.862,6.862,0,0,1-2.1-.239,1.1,1.1,0,0,1-.761-1.352,2.526,2.526,0,0,1,1.2-1.68,7.647,7.647,0,0,1,2.9-.973,5.391,5.391,0,0,1,2.63.31,1.357,1.357,0,0,1,.913,1.482l-1.994.24a.741.741,0,0,0-.688-.768,2.865,2.865,0,0,0-1.14,0,4.039,4.039,0,0,0-1.287.342,1.056,1.056,0,0,0-.579.723c-.066.233.1.369.389.472a5.541,5.541,0,0,0,1.229.1l1.624.095a5.026,5.026,0,0,1,1.628.279,1.091,1.091,0,0,1,.719,1.29,2.518,2.518,0,0,1-1.27,1.689,7.344,7.344,0,0,1-3.03.961,5.039,5.039,0,0,1-2.969-.25,1.231,1.231,0,0,1-.854-1.52ZM84.41,72.78l-.374,1.775,1.954-.148v1.056a.341.341,0,0,0-.187.05l-1.959.145-.576,2.591-1.855.194,1.379-6.625,3.2-.291v1.109Z" transform="translate(-14.084 -10.156)" fill="#fff" fill-rule="evenodd"/>
          <path id="Path_12" data-name="Path 12" d="M229.386,6.318a5.792,5.792,0,0,1,0,11.584V16.8a4.684,4.684,0,0,0,0-9.368Zm0,6.491h.2a1.085,1.085,0,0,1,.765.239c.13.1.171.382.222.822v.616a2.14,2.14,0,0,0,.054.581,1.19,1.19,0,0,0,.1.34h1.395v-.149a.6.6,0,0,1-.2-.383,2.156,2.156,0,0,1-.045-.633v-.42a2,2,0,0,0-.2-1.056,1.268,1.268,0,0,0-.621-.531,1.167,1.167,0,0,0,.77-.628,2.071,2.071,0,0,0,.2-.905,1.683,1.683,0,0,0-.1-.728,2.084,2.084,0,0,0-.337-.518,1.384,1.384,0,0,0-.59-.49A2.726,2.726,0,0,0,230,8.82h-.615V9.974h.335a1.062,1.062,0,0,1,.63.1c.276.136.376.388.376.815,0,.334-.1.626-.376.717a1.28,1.28,0,0,1-.684.1h-.281Zm0,5.093a5.792,5.792,0,0,1,0-11.584V7.429a4.684,4.684,0,0,0,0,9.368Zm0-9.082h-2.433v6.587h1.282v-2.6h1.151V11.7h-1.151V9.974h1.151Z" transform="translate(-38.681 -1.093)" fill="#fff" fill-rule="evenodd"/>
          <path id="Path_13" data-name="Path 13" d="M205.769,105.769v-1.3h1.877V99.087l-1.877,2.683V99.762l2.163-3.022h1.235v7.726h1.727v1.3h-1.727v2.872h-1.483v-2.872Zm7.8-.162a2.075,2.075,0,0,0,1.2,1.791,2.36,2.36,0,0,0,1.187.242,2.223,2.223,0,0,0,1.963-.813,3.083,3.083,0,0,0,.664-1.883,2.485,2.485,0,0,0-.748-1.916,2.574,2.574,0,0,0-1.836-.721,2.991,2.991,0,0,0-1.342.336,2.553,2.553,0,0,0-.9.826l-1.3-.1.87-6.391h6.162v1.444h-5.026l-.527,3.3a3.451,3.451,0,0,1,.828-.457,3.794,3.794,0,0,1,1.515-.31,3.939,3.939,0,0,1,2.729,1.066,3.5,3.5,0,0,1,1.158,2.688,4.471,4.471,0,0,1-1.069,2.987,3.869,3.869,0,0,1-3.289,1.287,4.325,4.325,0,0,1-2.541-.814,3.155,3.155,0,0,1-1.221-2.557Zm-7.8-5.845v2.008l-1.9,2.7h1.9v1.3h-3.3v-1.5Zm-8.605,9.216v-1.25a2.165,2.165,0,0,0,1.538-.855,7.27,7.27,0,0,0,1.039-3.659,2.733,2.733,0,0,1-1.216,1.151,4.523,4.523,0,0,1-1.361.295v-1.3a2.33,2.33,0,0,0,2.353-2.642,2.689,2.689,0,0,0-.674-1.971,2.236,2.236,0,0,0-1.678-.633V96.783a3.549,3.549,0,0,1,3.529,2.3,7.771,7.771,0,0,1,.541,3.22,10.623,10.623,0,0,1-.628,3.892c-.7,1.773-1.853,2.737-3.441,2.779m0-12.2v1.337a2.2,2.2,0,0,0-1.727.73,2.939,2.939,0,0,0-.658,1.965,2.631,2.631,0,0,0,.574,1.829,2.166,2.166,0,0,0,1.81.722v1.3h-.231a3.5,3.5,0,0,1-2.678-1.061,3.9,3.9,0,0,1-1.011-2.784,4.375,4.375,0,0,1,1.011-2.833,3.361,3.361,0,0,1,2.871-1.2Zm0,10.945v1.25h-.231a3.431,3.431,0,0,1-2.623-.918,2.94,2.94,0,0,1-.916-2.251h1.49a1.829,1.829,0,0,0,.958,1.68,1.94,1.94,0,0,0,1.059.282c.093,0,.18-.043.262-.043m-23.359,1.25v-1.287a2.307,2.307,0,0,0,1.858-.771,2.954,2.954,0,0,0,.57-1.068h1.434a2.424,2.424,0,0,1-.381,1.109,3.664,3.664,0,0,1-.718,1.011,3.328,3.328,0,0,1-1.678.875,3.968,3.968,0,0,1-1.085.131m0-4.274v-1.2h2.486a3.589,3.589,0,0,0-.434-1.541,2.2,2.2,0,0,0-2.052-1.093v-1.3h.081a3.987,3.987,0,0,1,1.827.436,4.232,4.232,0,0,1,1.377,1.146,4.911,4.911,0,0,1,.577,1.591,9.308,9.308,0,0,1,.15,1.966Zm11.03-4.469V99.087a5.444,5.444,0,0,0,2.253-.535,2.447,2.447,0,0,0,.971-1.713h1.175v11.8h-1.569v-8.406Zm-43.814,5.617a1.957,1.957,0,0,0,.364,1.17,2.415,2.415,0,0,0,1.968.706,2.857,2.857,0,0,0,1.441-.33,1.225,1.225,0,0,0,.617-1.105,1.018,1.018,0,0,0-.487-.92c-.22-.1-.659-.229-1.277-.43l-1.193-.284a5.377,5.377,0,0,1-1.659-.632,1.846,1.846,0,0,1-.976-1.673,2.5,2.5,0,0,1,.914-2.017,3.6,3.6,0,0,1,2.431-.772,3.315,3.315,0,0,1,2.863,1.157,2.6,2.6,0,0,1,.578,1.631h-1.422a1.629,1.629,0,0,0-.354-.973,2.255,2.255,0,0,0-1.753-.567,1.965,1.965,0,0,0-1.289.333,1.009,1.009,0,0,0-.433.87.978.978,0,0,0,.565.9,3.248,3.248,0,0,0,.956.39l1.011.249a7.351,7.351,0,0,1,2.141.718,2.033,2.033,0,0,1,.858,1.818,2.693,2.693,0,0,1-.915,2.072,3.641,3.641,0,0,1-2.7.865,3.834,3.834,0,0,1-2.811-.9,3.742,3.742,0,0,1-.884-2.274ZM173.8,99.565v1.3a2.28,2.28,0,0,0-1.727.768,2.911,2.911,0,0,0-.715,1.867H173.8v1.2h-2.5a4.024,4.024,0,0,0,.638,2.168,2.216,2.216,0,0,0,1.862.819v1.287h-.144a3.635,3.635,0,0,1-2.778-1.207,4.682,4.682,0,0,1-1.147-3.406,5.18,5.18,0,0,1,1.147-3.457,3.918,3.918,0,0,1,2.922-1.343m-25.2.243h1.484v8.833H148.6Zm0-3.362h1.484v1.726H148.6Zm3.745,3.316h1.431v1.311a3.447,3.447,0,0,1,1.334-1.161,3.571,3.571,0,0,1,1.519-.346,2.528,2.528,0,0,1,2.543,1.343,4.039,4.039,0,0,1,.381,2.078v5.655h-1.52v-5.566a2.582,2.582,0,0,0-.24-1.3,1.413,1.413,0,0,0-1.441-.862,4.158,4.158,0,0,0-.85.091,2.29,2.29,0,0,0-1.06.771,2.02,2.02,0,0,0-.47.873,4.648,4.648,0,0,0-.15,1.338v4.659H152.35Zm12.79-.243a3.92,3.92,0,0,1,2.448.716,3.365,3.365,0,0,1,1.137,2.545H167.3a2.611,2.611,0,0,0-.623-1.4,1.786,1.786,0,0,0-1.538-.511,2.088,2.088,0,0,0-2,1.388,5.071,5.071,0,0,0-.387,2.207,4.037,4.037,0,0,0,.538,2.248,1.872,1.872,0,0,0,1.752.926,1.967,1.967,0,0,0,1.49-.58,2.906,2.906,0,0,0,.767-1.534h1.424a3.879,3.879,0,0,1-1.214,2.6,4.115,4.115,0,0,1-2.557.81,3.409,3.409,0,0,1-2.777-1.3,4.887,4.887,0,0,1-1.041-3.174,5.284,5.284,0,0,1,1.146-3.651,3.67,3.67,0,0,1,2.858-1.3" transform="translate(-24.145 -16.685)" fill="#ffbe00" fill-rule="evenodd"/>
        </g>
      </g>
    </g>
  </g>
</svg>
